<svg width="101" height="100" viewBox="0 0 101 100" fill="none" xmlns="http://www.w3.org/2000/svg">
<path d="M0.0429688 12.5001C0.0429688 5.59656 5.63941 0.00012207 12.543 0.00012207H87.543C94.4465 0.00012207 100.043 5.59656 100.043 12.5001V87.5C100.043 94.4036 94.4465 100 87.543 100H12.543C5.63941 100 0.0429688 94.4036 0.0429688 87.5V12.5001Z" fill="#9147F0"/>
<path d="M0.0427246 76.5625H100.043V87.5C100.043 94.4036 94.4463 100 87.5427 100H12.5427C5.63917 100 0.0427246 94.4036 0.0427246 87.5V76.5625Z" fill="#7C33DE"/>
<path d="M87.5427 0.000122548C94.4463 0.00012285 100.043 5.59656 100.043 12.5001L100.043 87.9032C100.043 94.5841 94.6268 100 87.946 100C81.6826 100 76.6052 94.9226 76.6052 88.6593L76.6052 0.00012207L87.5427 0.000122548Z" fill="#A761FF"/>
<path d="M76.6052 88.6593C76.6052 94.9226 81.6826 100 87.946 100C94.6268 100 100.043 94.5841 100.043 87.9032C100.043 81.6399 94.9653 76.5625 88.702 76.5625H76.6052V88.6593Z" fill="#944BF0"/>
<path d="M16.8396 19.922H59.8083V27.7345H16.8396V19.922Z" fill="white"/>
<path d="M16.8396 34.3751H59.8083V42.1876H16.8396V34.3751Z" fill="white"/>
<path d="M43.4021 48.8282H16.8396V56.6407H43.4021V48.8282Z" fill="white"/>
</svg>
