<svg width="101" height="100" viewBox="0 0 101 100" fill="none" xmlns="http://www.w3.org/2000/svg">
<path d="M0.0644531 12.5C0.0644531 5.59645 5.66089 0 12.5645 0H87.5645C94.468 0 100.064 5.59645 100.064 12.5V87.5001C100.064 94.4037 94.468 100 87.5645 100H12.5645C5.66089 100 0.0644531 94.4037 0.0644531 87.5001V12.5Z" fill="#DE325B"/>
<path d="M0.0644531 76.5626H100.064V87.5001C100.064 94.4037 94.468 100 87.5645 100H12.5645C5.66089 100 0.0644531 94.4037 0.0644531 87.5001V76.5626Z" fill="#C9134B"/>
<path d="M87.5645 4.78094e-07C94.468 7.79858e-07 100.064 5.59645 100.064 12.5L100.064 87.9033C100.064 94.5842 94.6485 100 87.9677 100C81.7044 100 76.627 94.9227 76.627 88.6594L76.627 0L87.5645 4.78094e-07Z" fill="#FB4F6D"/>
<path d="M76.627 88.6594C76.627 94.9227 81.7044 100 87.9677 100C94.6485 100 100.064 94.5842 100.064 87.9033C100.064 81.64 94.987 76.5626 88.7237 76.5626H76.627V88.6594Z" fill="#E83D62"/>
<path fill-rule="evenodd" clip-rule="evenodd" d="M32.877 14.0625H48.8926C56.8749 14.0625 63.3457 20.5334 63.3457 28.5156C63.3457 36.4979 56.8748 42.9688 48.8926 42.9688H40.6895V62.5H27.0176C19.4668 62.5 13.3457 56.3789 13.3457 48.8281C13.3457 41.2774 19.4668 35.1563 27.0176 35.1563H32.877V14.0625ZM32.877 42.9688H27.0176C23.7815 42.9688 21.1582 45.5921 21.1582 48.8281C21.1582 52.0642 23.7815 54.6875 27.0176 54.6875H32.877V42.9688ZM40.6895 35.1563H48.8926C52.5601 35.1563 55.5332 32.1832 55.5332 28.5156C55.5332 24.8481 52.5601 21.875 48.8926 21.875H40.6895V35.1563Z" fill="white"/>
</svg>
