<svg width="101" height="100" viewBox="0 0 101 100" fill="none" xmlns="http://www.w3.org/2000/svg">
<path d="M0.0644531 12.5C0.0644531 5.59645 5.66089 0 12.5645 0H87.5645C94.468 0 100.064 5.59645 100.064 12.5V87.5001C100.064 94.4037 94.468 100 87.5645 100H12.5645C5.66089 100 0.0644531 94.4037 0.0644531 87.5001V12.5Z" fill="#DF4023"/>
<path d="M0.0644531 76.5626H100.064V87.5001C100.064 94.4037 94.468 100 87.5645 100H12.5645C5.66089 100 0.0644531 94.4037 0.0644531 87.5001V76.5626Z" fill="#C82912"/>
<path d="M87.5645 4.78094e-07C94.468 7.79858e-07 100.064 5.59645 100.064 12.5L100.064 87.9033C100.064 94.5842 94.6485 100 87.9677 100C81.7044 100 76.627 94.9227 76.627 88.6594L76.627 0L87.5645 4.78094e-07Z" fill="#F85836"/>
<path d="M76.627 88.6594C76.627 94.9227 81.7044 100 87.9677 100C94.6485 100 100.064 94.5842 100.064 87.9033C100.064 81.64 94.987 76.5626 88.7237 76.5626H76.627V88.6594Z" fill="#E54627"/>
<path fill-rule="evenodd" clip-rule="evenodd" d="M19.5957 14.8438H43.0332C51.6627 14.8438 58.6582 21.8393 58.6582 30.4688C58.6582 39.0982 51.6627 46.0938 43.0332 46.0938H27.4082V61.7188H19.5957V14.8438ZM27.4082 38.2813H43.0332C47.3479 38.2813 50.8457 34.7835 50.8457 30.4688C50.8457 26.154 47.3479 22.6563 43.0332 22.6563H27.4082V38.2813Z" fill="white"/>
</svg>
