<svg width="101" height="100" viewBox="0 0 101 100" fill="none" xmlns="http://www.w3.org/2000/svg">
<path d="M0.0429688 12.5C0.0429688 5.59645 5.63941 0 12.543 0H87.543C94.4465 0 100.043 5.59645 100.043 12.5V87.5001C100.043 94.4037 94.4465 100 87.543 100H12.543C5.63941 100 0.0429688 94.4037 0.0429688 87.5001V12.5Z" fill="#109968"/>
<path d="M0.0429688 76.5626H100.043V87.5001C100.043 94.4037 94.4465 100 87.543 100H12.543C5.63941 100 0.0429688 94.4037 0.0429688 87.5001V76.5626Z" fill="#007D53"/>
<path d="M87.543 4.78093e-07C94.4465 7.79858e-07 100.043 5.59645 100.043 12.5L100.043 87.9033C100.043 94.5842 94.6271 100 87.9462 100C81.6829 100 76.6055 94.9227 76.6055 88.6594L76.6055 0L87.543 4.78093e-07Z" fill="#38B27F"/>
<path d="M76.6055 88.6594C76.6055 94.9227 81.6829 100 87.9462 100C94.6271 100 100.043 94.5842 100.043 87.9033C100.043 81.64 94.9656 76.5626 88.7022 76.5626H76.6055V88.6594Z" fill="#21A170"/>
<path fill-rule="evenodd" clip-rule="evenodd" d="M25.8563 21.1964C29.1187 17.9412 34.2481 16.3725 40.3405 16.8972C46.8342 17.4563 50.6271 20.4355 52.6213 23.7549C53.5608 25.3187 54.0243 26.8284 54.2561 27.9464C54.373 28.51 54.4344 28.9898 54.4667 29.3497C54.4829 29.5302 54.492 29.6823 54.497 29.8017C54.4995 29.8615 54.501 29.9132 54.5019 29.9564C54.5023 29.978 54.5026 29.9974 54.5028 30.0147L54.503 30.039L54.503 30.05L54.503 30.0551C54.503 30.0576 54.503 30.06 50.5968 30.06C46.6905 30.06 46.6905 30.0624 46.6905 30.0648L46.6905 30.0694L46.6906 30.078L46.6907 30.0932C46.6908 30.1025 46.6909 30.11 46.691 30.1157C46.6913 30.1272 46.6915 30.1319 46.6914 30.1302C46.6913 30.1267 46.69 30.0983 46.6855 30.0485C46.6765 29.9477 46.655 29.7673 46.6064 29.533C46.5073 29.0552 46.3089 28.4181 45.9244 27.7781C45.2707 26.6901 43.768 25.0337 39.6703 24.6809C35.1714 24.2935 32.5674 25.5365 31.3746 26.7267C30.2593 27.8396 30.0485 29.1524 30.6247 30.4372C30.9732 31.2144 31.841 32.0531 33.958 32.8857C35.7754 33.6005 37.8937 34.0853 40.3367 34.6445C40.7706 34.7438 41.2147 34.8455 41.6691 34.9512C44.422 35.5914 47.7216 36.4142 50.3257 37.9782C51.6906 38.798 53.0207 39.9072 54.0023 41.4452C55.0063 43.0183 55.5117 44.8318 55.5117 46.8205C55.5117 52.6795 51.6213 56.4573 47.2255 58.2613C42.9147 60.0306 37.6141 60.2108 32.9375 58.9514C27.4012 57.4606 24.308 54.3446 22.703 51.3241C21.9309 49.8711 21.543 48.5186 21.3465 47.51C21.2477 47.0032 21.1954 46.574 21.1678 46.2493C21.1539 46.0866 21.1461 45.949 21.1418 45.8398C21.1397 45.7851 21.1384 45.7374 21.1376 45.6971C21.1372 45.677 21.137 45.6587 21.1369 45.6422L21.1367 45.6189L21.1367 45.6084L21.1367 45.6034C21.1367 45.6009 21.1367 45.5985 25.043 45.6047C28.9492 45.6108 28.9492 45.6084 28.9492 45.6061L28.9492 45.6016L28.9492 45.593L28.9491 45.5775C28.949 45.568 28.9489 45.56 28.9488 45.5535C28.9486 45.5405 28.9483 45.5333 28.9482 45.5318L28.9482 45.5315C28.9482 45.5315 28.949 45.5503 28.9521 45.5858C28.9586 45.6627 28.9752 45.8126 29.0147 46.0158C29.0949 46.427 29.2618 47.0179 29.602 47.6582C30.2218 48.8246 31.5837 50.496 34.9689 51.4077C38.1938 52.2761 41.7193 52.0763 44.2593 51.0339C46.7143 50.0263 47.6992 48.5607 47.6992 46.8205C47.6992 46.2036 47.5586 45.8705 47.4168 45.6483C47.2526 45.3911 46.9373 45.0564 46.3034 44.6757C44.91 43.8388 42.799 43.235 39.8994 42.5606C39.517 42.4716 39.1199 42.3813 38.7119 42.2885C36.304 41.7408 33.5141 41.1061 31.0986 40.1561C28.2506 39.036 25.0827 37.1719 23.4961 33.634C21.5505 29.2954 22.5165 24.529 25.8563 21.1964Z" fill="white"/>
</svg>
