<svg width="101" height="100" viewBox="0 0 101 100" fill="none" xmlns="http://www.w3.org/2000/svg">
<path d="M0.998535 12.5001C0.998535 5.59656 6.59498 0.00012207 13.4985 0.00012207H88.4985C95.4021 0.00012207 100.999 5.59656 100.999 12.5001V87.5C100.999 94.4036 95.4021 100 88.4985 100H13.4985C6.59498 100 0.998535 94.4036 0.998535 87.5V12.5001Z" fill="#3B64FC"/>
<path d="M0.998535 76.5625H100.999V87.5C100.999 94.4036 95.4021 100 88.4985 100H13.4985C6.59498 100 0.998535 94.4036 0.998535 87.5V76.5625Z" fill="#1050E7"/>
<path d="M88.4985 0.000122548C95.4021 0.00012285 100.999 5.59656 100.999 12.5001L100.999 87.9032C100.999 94.5841 95.5826 100 88.9018 100C82.6385 100 77.561 94.9226 77.561 88.6593L77.561 0.00012207L88.4985 0.000122548Z" fill="#5589FF"/>
<path d="M77.561 88.6593C77.561 94.9226 82.6385 100 88.9018 100C95.5826 100 100.999 94.5841 100.999 87.9032C100.999 81.6399 95.9211 76.5625 89.6578 76.5625H77.561V88.6593Z" fill="#476DFF"/>
<path d="M24.9953 55.8595L15.8423 19.1407H23.1874L29.7248 48.3026L35.82 20.6223H42.421L49.1647 48.5309L55.0019 19.1407H62.3266L54.0041 55.8595H44.8078L39.2897 33.6087L34.1167 55.8595H24.9953Z" fill="white"/>
</svg>
